<svg aria-hidden="true" style="position: absolute; width: 0; height: 0; overflow: hidden;" version="1.1" xmlns="http://www.w3.org/2000/svg" xmlns:xlink="http://www.w3.org/1999/xlink">
<defs>
<symbol id="icon-arrow-bold-left" viewBox="0 0 150 150">
<title>arrow-bold-left</title>
<path d="M75 18.75v26.25h52.5v60h-52.5v26.25l-56.25-56.25 56.25-56.25z"></path>
</symbol>
<symbol id="icon-arrow-bold-right" viewBox="0 0 150 150">
<title>arrow-bold-right</title>
<path d="M131.25 75l-56.25 56.25v-26.25h-52.5v-60h52.5v-26.25l56.25 56.25z"></path>
</symbol>
<symbol id="icon-arrow-long-left" viewBox="0 0 150 150">
<title>arrow-long-left</title>
<path d="M5.625 75l39.375-41.25v26.25h97.5v30h-97.5v26.25l-39.375-41.25z"></path>
</symbol>
<symbol id="icon-arrow-long-right" viewBox="0 0 150 150">
<title>arrow-long-right</title>
<path d="M105 116.25v-26.25h-97.5v-30h97.5v-26.25l39.375 41.25-39.375 41.25z"></path>
</symbol>
<symbol id="icon-arrow-with-circle-down" viewBox="0 0 150 150">
<title>arrow-with-circle-down</title>
<path d="M75 3c-39.773 0-72.007 32.235-72.007 72 0 39.773 32.235 72.007 72.007 72.007 39.757 0 72-32.235 72-72.007 0-39.765-32.243-72-72-72zM74.993 132c-31.477 0-57-25.515-57-57s25.515-57 57-57 57.007 25.523 57.007 57-25.53 57-57.007 57zM90 45h-30v30h-18.75l33.75 33.75 33.75-33.75h-18.75v-30z"></path>
</symbol>
<symbol id="icon-arrow-with-circle-up" viewBox="0 0 150 150">
<title>arrow-with-circle-up</title>
<path d="M75 3c-39.773 0-72.007 32.235-72.007 72 0 39.773 32.235 72.007 72.007 72.007 39.757 0 72-32.235 72-72.007 0-39.765-32.243-72-72-72zM74.993 132c-31.477 0-57-25.515-57-57s25.515-57 57-57 57.007 25.523 57.007 57-25.53 57-57.007 57zM75 41.25l33.75 33.75h-18.75v30h-30v-30h-18.75l33.75-33.75z"></path>
</symbol>
<symbol id="icon-chevron-down" viewBox="0 0 150 150">
<title>chevron-down</title>
<path d="M33.87 56.61c3.27-3.345 7.823-3.607 11.82 0l29.31 28.102 29.31-28.102c3.998-3.607 8.557-3.345 11.805 0 3.27 3.337 3.060 8.977 0 12.112-3.045 3.135-35.212 33.765-35.212 33.765-1.627 1.673-3.765 2.513-5.902 2.513s-4.275-0.84-5.918-2.513c0 0-32.152-30.63-35.213-33.765-3.068-3.135-3.27-8.775 0-12.113z"></path>
</symbol>
<symbol id="icon-chevron-left" viewBox="0 0 150 150">
<title>chevron-left</title>
<path d="M93.39 33.87c3.345 3.27 3.607 7.823 0 11.82l-28.102 29.31 28.102 29.31c3.607 3.998 3.345 8.557 0 11.805-3.337 3.27-8.977 3.060-12.112 0-3.135-3.045-33.765-35.212-33.765-35.212-1.673-1.627-2.512-3.765-2.512-5.902s0.84-4.275 2.512-5.918c0 0 30.63-32.152 33.765-35.213 3.135-3.068 8.775-3.27 12.112 0z"></path>
</symbol>
<symbol id="icon-chevron-right" viewBox="0 0 150 150">
<title>chevron-right</title>
<path d="M68.723 33.87c3.135 3.060 33.765 35.212 33.765 35.212 1.673 1.643 2.513 3.78 2.513 5.918s-0.84 4.275-2.513 5.902c0 0-30.63 32.168-33.765 35.213-3.135 3.060-8.775 3.27-12.113 0-3.345-3.255-3.607-7.807 0-11.805l28.102-29.31-28.102-29.31c-3.607-3.998-3.345-8.557 0-11.82 3.337-3.27 8.977-3.068 12.112 0z"></path>
</symbol>
<symbol id="icon-chevron-small-down" viewBox="0 0 150 150">
<title>chevron-small-down</title>
<path d="M100.635 58.943c2.032-2.010 5.318-2.010 7.335 0 2.025 2.010 2.040 5.257 0 7.268l-29.31 28.725c-2.025 2.010-5.302 2.010-7.343 0l-29.31-28.725c-2.025-2.002-2.025-5.257 0-7.268 2.032-2.010 5.318-2.010 7.335 0l25.657 23.557 25.635-23.557z"></path>
</symbol>
<symbol id="icon-chevron-small-up" viewBox="0 0 150 150">
<title>chevron-small-up</title>
<path d="M49.365 91.057c-2.032 2.010-5.318 2.010-7.335 0s-2.040-5.257 0-7.268l29.31-28.725c2.025-2.010 5.302-2.010 7.343 0l29.31 28.725c2.025 2.002 2.025 5.257 0 7.268-2.032 2.010-5.318 2.010-7.343 0l-25.65-23.557-25.635 23.557z"></path>
</symbol>
<symbol id="icon-chevron-thin-down" viewBox="0 0 150 150">
<title>chevron-thin-down</title>
<path d="M130.635 45.818c2.040-2.010 5.318-2.010 7.343 0s2.032 5.257 0 7.268l-59.31 58.725c-2.025 2.010-5.302 2.010-7.343 0l-59.31-58.725c-2.025-2.010-2.025-5.257 0-7.268 2.032-2.010 5.318-2.010 7.343 0l55.643 53.557 55.635-53.557z"></path>
</symbol>
<symbol id="icon-chevron-thin-left" viewBox="0 0 150 150">
<title>chevron-thin-left</title>
<path d="M104.182 130.635c2.010 2.040 2.010 5.318 0 7.343s-5.257 2.032-7.268 0l-58.725-59.31c-2.010-2.025-2.010-5.302 0-7.343l58.725-59.31c2.010-2.025 5.257-2.025 7.268 0 2.010 2.032 2.010 5.318 0 7.343l-53.557 55.643 53.557 55.635z"></path>
</symbol>
<symbol id="icon-chevron-thin-right" viewBox="0 0 150 150">
<title>chevron-thin-right</title>
<path d="M99.375 75l-53.557-55.65c-2.010-2.025-2.010-5.302 0-7.343 2.010-2.025 5.257-2.025 7.268 0l58.725 59.31c2.010 2.032 2.010 5.318 0 7.343l-58.725 59.31c-2.010 2.032-5.257 2.025-7.268 0-2.010-2.018-2.010-5.302 0-7.343l53.557-55.627z"></path>
</symbol>
<symbol id="icon-chevron-thin-up" viewBox="0 0 150 150">
<title>chevron-thin-up</title>
<path d="M19.365 104.182c-2.040 2.010-5.318 2.010-7.343 0s-2.032-5.257 0-7.268l59.31-58.725c2.025-2.010 5.302-2.010 7.343 0l59.31 58.725c2.025 2.010 2.025 5.257 0 7.268-2.032 2.010-5.318 2.010-7.335 0l-55.65-53.557-55.635 53.557z"></path>
</symbol>
<symbol id="icon-chevron-up" viewBox="0 0 150 150">
<title>chevron-up</title>
<path d="M116.13 93.39c-3.27 3.345-7.823 3.607-11.82 0l-29.31-28.102-29.31 28.102c-3.998 3.607-8.557 3.345-11.805 0-3.27-3.337-3.060-8.977 0-12.112 3.045-3.135 35.212-33.765 35.212-33.765 1.627-1.673 3.765-2.512 5.902-2.512s4.275 0.84 5.918 2.512c0 0 32.152 30.63 35.213 33.765 3.068 3.135 3.27 8.775 0 12.112z"></path>
</symbol>
<symbol id="icon-chevron-with-circle-down" viewBox="0 0 150 150">
<title>chevron-with-circle-down</title>
<path d="M93.787 65.235l-18.787 17.265-18.795-17.265c-1.485-1.47-3.885-1.47-5.385 0-1.477 1.47-1.477 3.862 0 5.325l21.48 21.052c1.493 1.47 3.9 1.47 5.377 0l21.48-21.052c1.493-1.463 1.485-3.855 0-5.325-1.477-1.47-3.877-1.47-5.37 0zM75 3c-39.765 0-72 32.235-72 72 0 39.773 32.235 72 72 72s72-32.227 72-72c0-39.765-32.235-72-72-72zM75 137.655c-34.613 0-62.655-28.050-62.655-62.655s28.043-62.655 62.655-62.655c34.598 0 62.655 28.050 62.655 62.655s-28.057 62.655-62.655 62.655z"></path>
</symbol>
<symbol id="icon-chevron-with-circle-up" viewBox="0 0 150 150">
<title>chevron-with-circle-up</title>
<path d="M77.693 58.387c-1.493-1.47-3.9-1.47-5.377 0l-21.48 21.052c-1.493 1.463-1.485 3.855 0 5.325 1.477 1.47 3.885 1.47 5.377 0l18.788-17.265 18.795 17.265c1.485 1.47 3.885 1.47 5.385 0 1.477-1.47 1.477-3.863 0-5.325l-21.487-21.052zM75 3c-39.765 0-72 32.235-72 72 0 39.773 32.235 72 72 72s72-32.227 72-72c0-39.765-32.235-72-72-72zM75 137.655c-34.613 0-62.655-28.050-62.655-62.655s28.043-62.655 62.655-62.655c34.598 0 62.655 28.050 62.655 62.655s-28.057 62.655-62.655 62.655z"></path>
</symbol>
<symbol id="icon-forward" viewBox="0 0 150 150">
<title>forward</title>
<path d="M90 89.055v32.677l52.5-50.175-52.5-49.29v29.873c-65.813 0-82.5 72.99-82.5 72.99 18.63-32.91 46.777-36.075 82.5-36.075z"></path>
</symbol>
<symbol id="icon-reply" viewBox="0 0 150 150">
<title>reply</title>
<path d="M142.5 125.138c0 0-16.688-72.99-82.5-72.99v-29.88l-52.5 49.298 52.5 50.175v-32.677c35.723-0.007 63.87 3.157 82.5 36.075z"></path>
</symbol>
</defs>
</svg>
